<svg id="Layer_1" data-name="Layer 1" xmlns="http://www.w3.org/2000/svg" viewBox="0 0 54 54"><defs><style>.cls-1{fill:#fff8fc;}.cls-2{fill:#424242;}.cls-3{fill:#b3ccfd;}</style></defs><title>Unleaven</title><circle class="cls-1" cx="27.21" cy="27.36" r="26"/><path class="cls-2" d="M42.78,22.35a26.34,26.34,0,0,0-3.11-3.64c-3.39-3-7.56-3.86-11.88-4.33-.43-.05-.85,0-.92.56s.36.73.84.77.88.1,1.31.17a22.48,22.48,0,0,1,8,2.55,5.06,5.06,0,0,1,2,1.69c-.8.1-1.79-.12-2,.75-.21,1.06-1,1.14-1.7,1.34-1.52.41-3.06.78-4.56,1.24a1.23,1.23,0,0,1-1.36-.34,48.44,48.44,0,0,0-4.38-3.85,3.72,3.72,0,0,0-3.41-.77,1.47,1.47,0,0,1-1.42-.22A4.17,4.17,0,0,0,15.58,18c-.29.16-.61.27-.91.4-1.26.53-1.34.87-.37,1.87,1.92,2,3.86,3.91,5.94,6-2.95.81-5.68,1.53-8.39,2.27-1.41.38-1.61.73-1.11,2.1a3.91,3.91,0,0,0,.61,1.16,6.16,6.16,0,0,0,5.9,2.44c1.2-.12,2,.69,2.86,1.2.46.28-.23,1.11-.31,1.72s-.57.76-1.1.85-1,.19-1.51.3-.79.31-.67.82.47.56.94.51c3-.28,3.11-.35,4-3.27,0-.11.06-.21.08-.32a.85.85,0,0,1,.73-.7q1.77-.4,3.51-.9c.57-.16.77-.06.81.57.09,2.31.12,2.31-2.11,2.85l-.22,0c-.42.11-.79.33-.67.83s.46.61.93.51c.83-.16,1.65-.35,2.49-.48.68-.1.91-.47.9-1.12,0-1,.06-1.92,0-2.87,0-.65.22-.9.82-1,1.77-.35,3.53-.69,5.27-1.13.93-.24,1.24,0,1.33.93s.3,1.51.44,2.27a6,6,0,0,1,.31,2.05c-.13.74-1.1.69-1.65,1.07-.36.25-.69.48-.46,1s.59.49,1,.29l1.2-.55C37.8,39,37.8,39,37.44,37.2s-.61-3.24-.93-4.86c-.16-.79.45-1.2.93-1.45s.49.5.66.8c.48.82.9,1.68,1.33,2.53.84,1.61.84,1.62-.52,2.76-.34.29-.57.62-.32,1s.74.36,1.15.09,1-.72,1.55-1a1,1,0,0,0,.38-1.57C40.75,33.77,39.94,32,39,30.33c-.63-1,.22-1.36.66-1.87.59-.69.8.16,1.08.38C42,30,43,29.75,43.51,28.13A5.91,5.91,0,0,0,42.78,22.35ZM31.49,24.7c.3-.07.76-.47.9.1a1.1,1.1,0,0,1-.29,1.29c-1.51,1.19-2.2,1.1-3.42-.64C29.69,25.17,30.58,24.91,31.49,24.7Zm-7.14-4.25c1.18,1,2.33,2,3.47,3,.17.15.64.32.27.67a.59.59,0,0,1-.81,0c-.5-.48-1-1-1.49-1.46-1-.92-2-1.83-3.13-2.82A2.09,2.09,0,0,1,24.35,20.45Zm-6,12.11a5.64,5.64,0,0,1-2.49.37,4.8,4.8,0,0,1-3.57-2.07c-.39-.57-.42-.92.41-1.12,2.62-.66,5.23-1.37,7.82-2.11a1,1,0,0,1,1.24.36A9.78,9.78,0,0,0,23,29.16c.73.6.78,1-.17,1.42C21.33,31.26,19.91,32,18.4,32.56Zm19.16-3.89a8.12,8.12,0,0,1-5.42,3.07,93.62,93.62,0,0,0-9.33,2.07,1.9,1.9,0,0,1-.41,0c-.17-1.69,1.06-2.09,2.12-2.66,1.35-.73,1.4-1,.33-2.07-3.1-3.12-6.22-6.22-9.4-9.39,1.43-1,2.58-1.22,3.94-.36a39.94,39.94,0,0,1,9.22,8.27,1.66,1.66,0,0,0,2.35.55,7.77,7.77,0,0,1,1.09-.51A2.24,2.24,0,0,0,33.79,25c-.12-.77.23-1.06,1-1.25C37,23.24,37,23.19,38,25.17S38.92,27,37.56,28.67ZM42,27.9c-.57.2-1-.71-1.38-1.22a14.82,14.82,0,0,1-2.26-4.22c-.25-.77,0-1,.78-.86,2.22.4,3.4,1.93,3.35,4.52C42.38,26.68,42.6,27.68,42,27.9Z"/><path class="cls-3" d="M22.79,30.58c-1.46.68-2.88,1.43-4.39,2a5.64,5.64,0,0,1-2.49.37,4.8,4.8,0,0,1-3.57-2.07c-.39-.57-.42-.92.41-1.12,2.62-.66,5.23-1.37,7.82-2.11a1,1,0,0,1,1.24.36A9.78,9.78,0,0,0,23,29.16C23.69,29.76,23.74,30.14,22.79,30.58Z"/><path class="cls-3" d="M42.47,26.12c-.09.56.13,1.56-.49,1.78s-1-.71-1.38-1.22a14.82,14.82,0,0,1-2.26-4.22c-.25-.77,0-1,.78-.86C41.34,22,42.52,23.53,42.47,26.12Z"/><path class="cls-3" d="M32.1,26.09c-1.51,1.19-2.2,1.1-3.42-.64,1-.28,1.9-.54,2.81-.75.3-.07.76-.47.9.1A1.1,1.1,0,0,1,32.1,26.09Z"/><path class="cls-3" d="M28.09,24.14a.59.59,0,0,1-.81,0c-.5-.48-1-1-1.49-1.46-1-.92-2-1.83-3.13-2.82a2.09,2.09,0,0,1,1.69.63c1.18,1,2.33,2,3.47,3C28,23.62,28.46,23.79,28.09,24.14Z"/><path class="cls-3" d="M37.56,28.67a8.12,8.12,0,0,1-5.42,3.07,93.62,93.62,0,0,0-9.33,2.07,1.9,1.9,0,0,1-.41,0c-.17-1.69,1.06-2.09,2.12-2.66,1.35-.73,1.4-1,.33-2.07-3.1-3.12-6.22-6.22-9.4-9.39,1.43-1,2.58-1.22,3.94-.36a39.94,39.94,0,0,1,9.22,8.27,1.66,1.66,0,0,0,2.35.55,7.77,7.77,0,0,1,1.09-.51A2.24,2.24,0,0,0,33.79,25c-.12-.77.23-1.06,1-1.25C37,23.24,37,23.19,38,25.17S38.92,27,37.56,28.67Z"/></svg>