<svg id="Layer_1" data-name="Layer 1" xmlns="http://www.w3.org/2000/svg" viewBox="0 0 54 54"><defs><style>.cls-1{fill:#fff8fc;}.cls-2{fill:#424242;}.cls-3{fill:#b3ccfd;}</style></defs><title>Unleaven</title><circle class="cls-1" cx="27.17" cy="27.09" r="26"/><path class="cls-2" d="M37.78,29.94a48.09,48.09,0,0,0-3.39-8.16c-1.87-3.76-3.92-7.41-6.1-11-.77-1.27-1.4-1.27-2.2,0-.44.68-.85,1.39-1.25,2.09-3.13,5.5-6.38,11-8.23,17.08A10.89,10.89,0,0,0,27.09,44,10.93,10.93,0,0,0,37.78,29.94ZM27.07,42.23a9.16,9.16,0,0,1-8.78-11.72c1.58-5.38,4.43-10.19,7.13-15.07.39-.7.82-1.39,1.21-2.1s.63-.82,1.06-.07C30.76,18.64,34,24,35.89,29.88A9.19,9.19,0,0,1,27.07,42.23Z"/><path class="cls-2" d="M23,37.28c-.8.43-1.19-.29-1.54-.85a7.23,7.23,0,0,1-1-3.49,12.06,12.06,0,0,1,1.11-4,.84.84,0,0,1,1.19-.44.81.81,0,0,1,.44,1.08c-.16.54-.35,1.08-.55,1.62A4.69,4.69,0,0,0,23,35.57C23.37,36.15,23.78,36.82,23,37.28Z"/><path class="cls-3" d="M35.91,29.88C34,24,30.77,18.64,27.7,13.27c-.42-.75-.72-.54-1.05.07s-.83,1.39-1.21,2.1c-2.7,4.88-5.56,9.69-7.14,15.07a9.24,9.24,0,1,0,17.61-.63ZM23,37.27c-.79.44-1.19-.28-1.54-.84a7.09,7.09,0,0,1-1-3.49,12.37,12.37,0,0,1,1.11-4,.83.83,0,0,1,1.19-.43.79.79,0,0,1,.44,1.06c-.16.55-.35,1.09-.55,1.63A4.69,4.69,0,0,0,23,35.57C23.38,36.15,23.79,36.83,23,37.27Z"/></svg>