<svg id="Layer_1" data-name="Layer 1" xmlns="http://www.w3.org/2000/svg" viewBox="0 0 54 54"><defs><style>.cls-1{fill:#fff8fc;}.cls-2{fill:#424242;}.cls-3{fill:#b3ccfd;}</style></defs><title>Unleaven</title><circle class="cls-1" cx="27.32" cy="27.2" r="26"/><path class="cls-2" d="M26.26,25.79A2.24,2.24,0,1,0,28.5,28,2.24,2.24,0,0,0,26.26,25.79Zm0,3.3A1.06,1.06,0,1,1,27.32,28,1.06,1.06,0,0,1,26.26,29.09Z"/><path class="cls-2" d="M27.9,31.44a2.23,2.23,0,1,0,2.24,2.23A2.23,2.23,0,0,0,27.9,31.44Zm0,3.28a1.06,1.06,0,0,1,0-2.11,1.06,1.06,0,1,1,0,2.11Z"/><path class="cls-2" d="M27.08,37.08A1.88,1.88,0,1,0,29,39,1.88,1.88,0,0,0,27.08,37.08Zm0,2.77A.9.9,0,1,1,28,39,.88.88,0,0,1,27.08,39.85Z"/><path class="cls-2" d="M21.79,31a3.41,3.41,0,1,0,3.41,3.4A3.41,3.41,0,0,0,21.79,31Zm0,5.4a2,2,0,1,1,2-2A2,2,0,0,1,21.79,36.37Z"/><path class="cls-2" d="M33.08,25.56A3.41,3.41,0,1,0,36.49,29,3.41,3.41,0,0,0,33.08,25.56Zm0,5.41a2,2,0,1,1,2-2A2,2,0,0,1,33.08,31Z"/><path class="cls-2" d="M23.32,19A3.06,3.06,0,1,0,26.38,22,3.07,3.07,0,0,0,23.32,19Zm0,4.85A1.82,1.82,0,1,1,25.14,22,1.81,1.81,0,0,1,23.32,23.82Z"/><path class="cls-2" d="M36.25,19.45a3.06,3.06,0,1,0,3,3.05A3.05,3.05,0,0,0,36.25,19.45Zm0,4.85a1.82,1.82,0,1,1,1.82-1.82A1.82,1.82,0,0,1,36.26,24.3Z"/><path class="cls-2" d="M39.19,25.33a2.23,2.23,0,1,0,2.23,2.23A2.22,2.22,0,0,0,39.19,25.33Zm0,3.28a1.06,1.06,0,0,1,0-2.11,1.06,1.06,0,1,1,0,2.11Z"/><path class="cls-2" d="M29.55,20.38a2.24,2.24,0,1,0,2.23,2.24A2.24,2.24,0,0,0,29.55,20.38Zm0,3.3a1.06,1.06,0,1,1,1.06-1.06A1.05,1.05,0,0,1,29.55,23.68Z"/><path class="cls-2" d="M16.38,28.61a2.24,2.24,0,1,0,2.24,2.24A2.24,2.24,0,0,0,16.38,28.61Zm0,3.29a1.06,1.06,0,1,1,1.07-1A1,1,0,0,1,16.38,31.9Z"/><path class="cls-2" d="M32.84,15a2.24,2.24,0,1,0,2.24,2.23A2.23,2.23,0,0,0,32.84,15Zm0,3.29a1.06,1.06,0,1,1,1.06-1.06A1.06,1.06,0,0,1,32.84,18.27Z"/><path class="cls-2" d="M15.1,34.49A1.88,1.88,0,1,0,17,36.37,1.88,1.88,0,0,0,15.1,34.49Zm0,2.78a.9.9,0,1,1,0-1.79.9.9,0,0,1,0,1.79Z"/><path class="cls-2" d="M22.62,39a1.88,1.88,0,1,0,1.88,1.88A1.88,1.88,0,0,0,22.62,39Zm0,2.77a.9.9,0,1,1,.89-.89A.9.9,0,0,1,22.62,41.73Z"/><path class="cls-2" d="M33.31,33.08a2,2,0,1,0,2,2A2,2,0,0,0,33.31,33.08Zm0,2.94a.95.95,0,0,1,0-1.89.95.95,0,1,1,0,1.89Z"/><path class="cls-2" d="M21.09,26a2,2,0,1,0,2,2A2,2,0,0,0,21.09,26Zm0,2.94A.95.95,0,1,1,22,28,.94.94,0,0,1,21.09,29Z"/><path class="cls-2" d="M27.67,16.39a2,2,0,1,0,2,2A2,2,0,0,0,27.67,16.39Zm0,2.94a.95.95,0,1,1,.95-.94A.95.95,0,0,1,27.67,19.33Z"/><path class="cls-2" d="M28.38,11.69a2,2,0,1,0,2,2A2,2,0,0,0,28.38,11.69Zm0,2.94a.95.95,0,1,1,.94-.94A.94.94,0,0,1,28.38,14.63Z"/><path class="cls-2" d="M38,15a2,2,0,1,0,2,2A2,2,0,0,0,38,15Zm0,2.95a1,1,0,0,1-1-1A1,1,0,0,1,38,16,.94.94,0,0,1,39,17,1,1,0,0,1,38,17.93Z"/><path class="cls-3" d="M16,36.37a.89.89,0,0,1-.88.9.9.9,0,1,1,0-1.79A.88.88,0,0,1,16,36.37Z"/><path class="cls-2" d="M15.1,34.49A1.88,1.88,0,1,0,17,36.37,1.88,1.88,0,0,0,15.1,34.49Zm0,2.78a.9.9,0,1,1,0-1.79.9.9,0,0,1,0,1.79Z"/><path class="cls-3" d="M17.45,30.85a1.06,1.06,0,1,1-1.07-1.06A1.05,1.05,0,0,1,17.45,30.85Z"/><path class="cls-2" d="M16.38,28.61a2.24,2.24,0,1,0,2.24,2.24A2.24,2.24,0,0,0,16.38,28.61Zm0,3.29a1.06,1.06,0,1,1,1.07-1A1,1,0,0,1,16.38,31.9Z"/><path class="cls-3" d="M22,28a.95.95,0,1,1-.94-1A.94.94,0,0,1,22,28Z"/><path class="cls-2" d="M21.09,26a2,2,0,1,0,2,2A2,2,0,0,0,21.09,26Zm0,2.94A.95.95,0,1,1,22,28,.94.94,0,0,1,21.09,29Z"/><path class="cls-3" d="M23.51,40.84a.9.9,0,0,1-1.79,0,.9.9,0,1,1,1.79,0Z"/><path class="cls-2" d="M22.62,39a1.88,1.88,0,1,0,1.88,1.88A1.88,1.88,0,0,0,22.62,39Zm0,2.77a.9.9,0,1,1,.89-.89A.9.9,0,0,1,22.62,41.73Z"/><path class="cls-3" d="M23.83,34.34a2,2,0,1,1-2-2A2,2,0,0,1,23.83,34.34Z"/><path class="cls-2" d="M21.79,31a3.41,3.41,0,1,0,3.41,3.4A3.41,3.41,0,0,0,21.79,31Zm0,5.4a2,2,0,1,1,2-2A2,2,0,0,1,21.79,36.37Z"/><path class="cls-3" d="M25.14,22a1.82,1.82,0,1,1-1.82-1.82A1.81,1.81,0,0,1,25.14,22Z"/><path class="cls-2" d="M23.32,19A3.06,3.06,0,1,0,26.38,22,3.07,3.07,0,0,0,23.32,19Zm0,4.85A1.82,1.82,0,1,1,25.14,22,1.81,1.81,0,0,1,23.32,23.82Z"/><path class="cls-3" d="M27.32,28A1.06,1.06,0,1,1,26.26,27,1.06,1.06,0,0,1,27.32,28Z"/><path class="cls-2" d="M26.26,25.79A2.24,2.24,0,1,0,28.5,28,2.24,2.24,0,0,0,26.26,25.79Zm0,3.3A1.06,1.06,0,1,1,27.32,28,1.06,1.06,0,0,1,26.26,29.09Z"/><path class="cls-3" d="M28,39a.89.89,0,1,1-.89-.9A.89.89,0,0,1,28,39Z"/><path class="cls-2" d="M27.08,37.08A1.88,1.88,0,1,0,29,39,1.88,1.88,0,0,0,27.08,37.08Zm0,2.77A.9.9,0,1,1,28,39,.88.88,0,0,1,27.08,39.85Z"/><path class="cls-2" d="M27.67,16.39a2,2,0,1,0,2,2A2,2,0,0,0,27.67,16.39Zm0,2.94a.95.95,0,1,1,.95-.94A.95.95,0,0,1,27.67,19.33Z"/><path class="cls-3" d="M28.62,18.39a1,1,0,0,1-1.9,0,1,1,0,1,1,1.9,0Z"/><path class="cls-2" d="M27.9,31.44a2.23,2.23,0,1,0,2.24,2.23A2.23,2.23,0,0,0,27.9,31.44Zm0,3.28a1.06,1.06,0,0,1,0-2.11,1.06,1.06,0,1,1,0,2.11Z"/><path class="cls-3" d="M29,33.67a1.06,1.06,0,1,1-1.06-1.06A1.05,1.05,0,0,1,29,33.67Z"/><path class="cls-3" d="M29.32,13.69a.95.95,0,1,1-.94-.95A.94.94,0,0,1,29.32,13.69Z"/><path class="cls-2" d="M28.38,11.69a2,2,0,1,0,2,2A2,2,0,0,0,28.38,11.69Zm0,2.94a.95.95,0,1,1,.94-.94A.94.94,0,0,1,28.38,14.63Z"/><path class="cls-3" d="M30.61,22.62a1.06,1.06,0,1,1-1.06-1.06A1.05,1.05,0,0,1,30.61,22.62Z"/><path class="cls-2" d="M29.55,20.38a2.24,2.24,0,1,0,2.23,2.24A2.24,2.24,0,0,0,29.55,20.38Zm0,3.3a1.06,1.06,0,1,1,1.06-1.06A1.05,1.05,0,0,1,29.55,23.68Z"/><path class="cls-3" d="M33.9,17.21a1.06,1.06,0,1,1-1.06-1.05A1.05,1.05,0,0,1,33.9,17.21Z"/><path class="cls-2" d="M32.84,15a2.24,2.24,0,1,0,2.24,2.23A2.23,2.23,0,0,0,32.84,15Zm0,3.29a1.06,1.06,0,1,1,1.06-1.06A1.06,1.06,0,0,1,32.84,18.27Z"/><path class="cls-3" d="M34.26,35.08a.95.95,0,1,1-.95-.95A.95.95,0,0,1,34.26,35.08Z"/><path class="cls-2" d="M33.31,33.08a2,2,0,1,0,2,2A2,2,0,0,0,33.31,33.08Zm0,2.94a.95.95,0,0,1,0-1.89.95.95,0,1,1,0,1.89Z"/><path class="cls-3" d="M35.11,28.94a2,2,0,1,1-2-2A2,2,0,0,1,35.11,28.94Z"/><path class="cls-2" d="M33.08,25.56A3.41,3.41,0,1,0,36.49,29,3.41,3.41,0,0,0,33.08,25.56Zm0,5.41a2,2,0,1,1,2-2A2,2,0,0,1,33.08,31Z"/><path class="cls-2" d="M36.25,19.45a3.06,3.06,0,1,0,3,3.05A3.05,3.05,0,0,0,36.25,19.45Zm0,4.85a1.82,1.82,0,1,1,1.82-1.82A1.82,1.82,0,0,1,36.26,24.3Z"/><path class="cls-3" d="M38.08,22.48a1.82,1.82,0,1,1-1.82-1.82A1.83,1.83,0,0,1,38.08,22.48Z"/><path class="cls-3" d="M39,17a1,1,0,0,1-.94,1,1,1,0,0,1-1-1A1,1,0,0,1,38,16,.94.94,0,0,1,39,17Z"/><path class="cls-2" d="M38,15a2,2,0,1,0,2,2A2,2,0,0,0,38,15Zm0,2.95a1,1,0,0,1-1-1A1,1,0,0,1,38,16,.94.94,0,0,1,39,17,1,1,0,0,1,38,17.93Z"/><circle class="cls-3" cx="39.19" cy="27.56" r="1.06"/><path class="cls-2" d="M39.19,25.33a2.23,2.23,0,1,0,2.23,2.23A2.22,2.22,0,0,0,39.19,25.33Zm0,3.28a1.06,1.06,0,0,1,0-2.11,1.06,1.06,0,1,1,0,2.11Z"/></svg>