<svg id="Layer_1" data-name="Layer 1" xmlns="http://www.w3.org/2000/svg" viewBox="0 0 54 54"><defs><style>.cls-1{fill:#fff8fc;}.cls-2{fill:#424242;}.cls-3{fill:#b3ccfd;}</style></defs><title>Unleaven</title><circle class="cls-1" cx="26.59" cy="26.77" r="26"/><path class="cls-2" d="M38.41,24.86h-.08v-.09a7.77,7.77,0,0,0-2.89-6.05,7.92,7.92,0,0,0-3.56-1.63c-.6,0-1.2-.08-1.86-.09a7.72,7.72,0,0,0-7.28,7.41A4.78,4.78,0,0,0,20,23.55a5.3,5.3,0,0,0-4.93,4.05,4.62,4.62,0,0,0-1-.11,4.52,4.52,0,0,0,0,9H28.77c8-.05,11-.22,11-.22a5.81,5.81,0,0,0,3.81-5.62C43.59,27.48,41.27,24.86,38.41,24.86ZM39,35.33l-24.87.05a3.37,3.37,0,1,1,0-6.74,3.45,3.45,0,0,1,1.2.22l.65.26.12-.69A4.25,4.25,0,0,1,20,24.7a3.74,3.74,0,0,1,2.91,1.47l1.35,1.72L24,25.73a5.9,5.9,0,0,1-.07-.95A6.64,6.64,0,0,1,30,18.15c.6,0,1.18.06,1.7.09a6.65,6.65,0,0,1,5.44,6.54,5.68,5.68,0,0,1,0,.59l0,.22h.14a5.13,5.13,0,0,1,3,.93,4.78,4.78,0,0,1,2.19,3.81h0c0,.12,0,.24,0,.36v.07A4.51,4.51,0,0,1,39,35.33Z"/><path class="cls-3" d="M42.44,30.69v.07A4.51,4.51,0,0,1,39,35.33l-24.87.05a3.37,3.37,0,1,1,0-6.74,3.45,3.45,0,0,1,1.2.22l.65.26.12-.69A4.25,4.25,0,0,1,20,24.7a3.74,3.74,0,0,1,2.91,1.47l1.35,1.72L24,25.73a5.9,5.9,0,0,1-.07-.95A6.64,6.64,0,0,1,30,18.15c.6,0,1.18.06,1.7.09a6.65,6.65,0,0,1,5.44,6.54,5.68,5.68,0,0,1,0,.59l0,.22h.14a5.13,5.13,0,0,1,3,.93,4.78,4.78,0,0,1,2.19,3.81h0C42.43,30.45,42.44,30.57,42.44,30.69Z"/></svg>