<svg id="Layer_1" data-name="Layer 1" xmlns="http://www.w3.org/2000/svg" viewBox="0 0 54 54"><defs><style>.cls-1{fill:#fff8fc;}.cls-2{fill:#424242;}.cls-3{fill:#b3ccfd;}</style></defs><title>Unleaven</title><circle class="cls-1" cx="27.16" cy="26.89" r="26"/><path class="cls-2" d="M26.23,29.2a3.74,3.74,0,0,0-2.75-3,8.57,8.57,0,0,0-2.8-.42H20A3.84,3.84,0,0,0,16,29.31c-.32,2.58.84,4.54,3.12,5.08A6,6,0,0,0,24.87,33,3.79,3.79,0,0,0,26.23,29.2Zm-2.95,3.12a5.4,5.4,0,0,1-2.59.64c-2.05,0-3.17-1-3.19-2.88s1-2.69,3.22-2.67a5.67,5.67,0,0,1,2.07.31,2.21,2.21,0,0,1,1.86,2A2.49,2.49,0,0,1,23.28,32.32Z"/><path class="cls-2" d="M30.7,36.53A9.24,9.24,0,0,0,28.6,33a1.78,1.78,0,0,0-2.65-.2,7.49,7.49,0,0,0-2.46,4.28,2,2,0,0,0,2.13,2.46c.65.14,1.25-.92,2.16-.32a1.88,1.88,0,0,0,2.39-.2A2.2,2.2,0,0,0,30.7,36.53Zm-2.16,1.22a2.23,2.23,0,0,0-2.72,0c-.6.41-.87-.12-.7-.69a8.18,8.18,0,0,1,1.45-2.55.73.73,0,0,1,1-.16,8.88,8.88,0,0,1,1.61,2.9C29.25,37.73,29,38,28.54,37.75Z"/><path class="cls-2" d="M33.79,25.81a8.06,8.06,0,0,0-3.53.65,4,4,0,0,0-.91,6.68,6.36,6.36,0,0,0,5,1.42,4.25,4.25,0,0,0,4.1-4.82C38.24,27.16,36.64,25.8,33.79,25.81Zm.6,7.11c-.26,0-.52,0-.64,0a5.2,5.2,0,0,1-3.06-.85,2.48,2.48,0,0,1-1-2.48,2.2,2.2,0,0,1,1.6-1.84,7.87,7.87,0,0,1,2.81-.39c1.72,0,2.62.83,2.71,2.43A2.61,2.61,0,0,1,34.39,32.92Z"/><path class="cls-2" d="M41.31,31a3.81,3.81,0,0,1-.38-3.89,11,11,0,0,0-1.36-11c-3.87-5.42-11.64-7.47-18.28-5-6.84,2.57-10.86,9.7-7.71,16.54a3.14,3.14,0,0,1-.47,3.17c-1.81,2.83-.54,5.66,2.78,6.27.5.09.86.15.89.82a4.78,4.78,0,0,0,2.5,3.86,13.62,13.62,0,0,0,7.15,2.07A15.38,15.38,0,0,0,34.63,42c1.45-.87,2.7-2,2.82-3.78.07-.85.37-1.06,1.14-1.18A3.82,3.82,0,0,0,41.31,31Zm-3.37,4.54a7.21,7.21,0,0,0-1.4.26c-.59.18-1,.55-.76,1.25a2.54,2.54,0,0,1-1,2.85c-2.19,1.89-4.89,2.22-7.54,2.37-2.61-.14-5.08-.46-7.2-2-1.1-.8-1.87-1.75-1.48-3.27.26-1-.54-1.16-1.21-1.33-3.88-.94-4.06-1.29-2.34-4.82a4,4,0,0,0,.16-3.63c-2.75-5.4,0-12.21,6.93-14.62,5.64-2,10.88-1.08,15.17,3.23a9.41,9.41,0,0,1,2.08,11,5,5,0,0,0,.5,4.9C41,33.58,40.22,35.21,37.94,35.49Z"/><path class="cls-2" d="M26.23,29.2a3.74,3.74,0,0,0-2.75-3,8.57,8.57,0,0,0-2.8-.42H20A3.84,3.84,0,0,0,16,29.31c-.32,2.58.84,4.54,3.12,5.08A6,6,0,0,0,24.87,33,3.79,3.79,0,0,0,26.23,29.2Zm-2.95,3.12a5.4,5.4,0,0,1-2.59.64c-2.05,0-3.17-1-3.19-2.88s1-2.69,3.22-2.67a5.67,5.67,0,0,1,2.07.31,2.21,2.21,0,0,1,1.86,2A2.49,2.49,0,0,1,23.28,32.32Z"/><path class="cls-2" d="M30.7,36.53A9.24,9.24,0,0,0,28.6,33a1.78,1.78,0,0,0-2.65-.2,7.49,7.49,0,0,0-2.46,4.28,2,2,0,0,0,2.13,2.46c.65.14,1.25-.92,2.16-.32a1.88,1.88,0,0,0,2.39-.2A2.2,2.2,0,0,0,30.7,36.53Zm-2.16,1.22a2.23,2.23,0,0,0-2.72,0c-.6.41-.87-.12-.7-.69a8.18,8.18,0,0,1,1.45-2.55.73.73,0,0,1,1-.16,8.88,8.88,0,0,1,1.61,2.9C29.25,37.73,29,38,28.54,37.75Z"/><path class="cls-2" d="M33.79,25.81a8.06,8.06,0,0,0-3.53.65,4,4,0,0,0-.91,6.68,6.36,6.36,0,0,0,5,1.42,4.25,4.25,0,0,0,4.1-4.82C38.24,27.16,36.64,25.8,33.79,25.81Zm.6,7.11c-.26,0-.52,0-.64,0a5.2,5.2,0,0,1-3.06-.85,2.48,2.48,0,0,1-1-2.48,2.2,2.2,0,0,1,1.6-1.84,7.87,7.87,0,0,1,2.81-.39c1.72,0,2.62.83,2.71,2.43A2.61,2.61,0,0,1,34.39,32.92Z"/><path class="cls-2" d="M33.79,25.81a8.06,8.06,0,0,0-3.53.65,4,4,0,0,0-.91,6.68,6.36,6.36,0,0,0,5,1.42,4.25,4.25,0,0,0,4.1-4.82C38.24,27.16,36.64,25.8,33.79,25.81Zm.6,7.11c-.26,0-.52,0-.64,0a5.2,5.2,0,0,1-3.06-.85,2.48,2.48,0,0,1-1-2.48,2.2,2.2,0,0,1,1.6-1.84,7.87,7.87,0,0,1,2.81-.39c1.72,0,2.62.83,2.71,2.43A2.61,2.61,0,0,1,34.39,32.92Z"/><path class="cls-2" d="M26.23,29.2a3.74,3.74,0,0,0-2.75-3,8.57,8.57,0,0,0-2.8-.42H20A3.84,3.84,0,0,0,16,29.31c-.32,2.58.84,4.54,3.12,5.08A6,6,0,0,0,24.87,33,3.79,3.79,0,0,0,26.23,29.2Zm-2.95,3.12a5.4,5.4,0,0,1-2.59.64c-2.05,0-3.17-1-3.19-2.88s1-2.69,3.22-2.67a5.67,5.67,0,0,1,2.07.31,2.21,2.21,0,0,1,1.86,2A2.49,2.49,0,0,1,23.28,32.32Z"/><path class="cls-2" d="M30.7,36.53A9.24,9.24,0,0,0,28.6,33a1.78,1.78,0,0,0-2.65-.2,7.49,7.49,0,0,0-2.46,4.28,2,2,0,0,0,2.13,2.46c.65.14,1.25-.92,2.16-.32a1.88,1.88,0,0,0,2.39-.2A2.2,2.2,0,0,0,30.7,36.53Zm-2.16,1.22a2.23,2.23,0,0,0-2.72,0c-.6.41-.87-.12-.7-.69a8.18,8.18,0,0,1,1.45-2.55.73.73,0,0,1,1-.16,8.88,8.88,0,0,1,1.61,2.9C29.25,37.73,29,38,28.54,37.75Z"/><path class="cls-3" d="M39.81,31.64a5,5,0,0,1-.5-4.9,9.41,9.41,0,0,0-2.08-11c-4.29-4.31-9.53-5.2-15.17-3.23-6.92,2.41-9.68,9.22-6.93,14.62A4,4,0,0,1,15,30.79c-1.72,3.53-1.54,3.88,2.34,4.82.67.17,1.47.35,1.21,1.33-.39,1.52.38,2.47,1.48,3.27,2.12,1.55,4.59,1.87,7.2,2,2.65-.15,5.35-.48,7.54-2.37a2.54,2.54,0,0,0,1-2.85c-.23-.7.17-1.07.76-1.25a7.21,7.21,0,0,1,1.4-.26C40.22,35.21,41,33.58,39.81,31.64ZM19.07,34.39c-2.28-.54-3.44-2.5-3.12-5.08A3.84,3.84,0,0,1,20,25.81h.64a8.57,8.57,0,0,1,2.8.42,3.74,3.74,0,0,1,2.75,3A3.79,3.79,0,0,1,24.87,33,6,6,0,0,1,19.07,34.39ZM30.17,39a1.88,1.88,0,0,1-2.39.2c-.91-.6-1.51.46-2.16.32a2,2,0,0,1-2.13-2.46A7.49,7.49,0,0,1,26,32.81a1.78,1.78,0,0,1,2.65.2,9.24,9.24,0,0,1,2.1,3.52A2.2,2.2,0,0,1,30.17,39Zm4.14-4.47a6.36,6.36,0,0,1-5-1.42,4,4,0,0,1,.91-6.68,8.06,8.06,0,0,1,3.53-.65c2.85,0,4.45,1.35,4.62,3.93A4.25,4.25,0,0,1,34.31,34.56Z"/><path class="cls-2" d="M26.23,29.2a3.74,3.74,0,0,0-2.75-3,8.57,8.57,0,0,0-2.8-.42H20A3.84,3.84,0,0,0,16,29.31c-.32,2.58.84,4.54,3.12,5.08A6,6,0,0,0,24.87,33,3.79,3.79,0,0,0,26.23,29.2Zm-2.95,3.12a5.4,5.4,0,0,1-2.59.64c-2.05,0-3.17-1-3.19-2.88s1-2.69,3.22-2.67a5.67,5.67,0,0,1,2.07.31,2.21,2.21,0,0,1,1.86,2A2.49,2.49,0,0,1,23.28,32.32Z"/><path class="cls-2" d="M30.7,36.53A9.24,9.24,0,0,0,28.6,33a1.78,1.78,0,0,0-2.65-.2,7.49,7.49,0,0,0-2.46,4.28,2,2,0,0,0,2.13,2.46c.65.14,1.25-.92,2.16-.32a1.88,1.88,0,0,0,2.39-.2A2.2,2.2,0,0,0,30.7,36.53Zm-2.16,1.22a2.23,2.23,0,0,0-2.72,0c-.6.41-.87-.12-.7-.69a8.18,8.18,0,0,1,1.45-2.55.73.73,0,0,1,1-.16,8.88,8.88,0,0,1,1.61,2.9C29.25,37.73,29,38,28.54,37.75Z"/><path class="cls-2" d="M33.79,25.81a8.06,8.06,0,0,0-3.53.65,4,4,0,0,0-.91,6.68,6.36,6.36,0,0,0,5,1.42,4.25,4.25,0,0,0,4.1-4.82C38.24,27.16,36.64,25.8,33.79,25.81Zm.6,7.11c-.26,0-.52,0-.64,0a5.2,5.2,0,0,1-3.06-.85,2.48,2.48,0,0,1-1-2.48,2.2,2.2,0,0,1,1.6-1.84,7.87,7.87,0,0,1,2.81-.39c1.72,0,2.62.83,2.71,2.43A2.61,2.61,0,0,1,34.39,32.92Z"/><path class="cls-3" d="M29.21,37.21c0,.52-.23.81-.67.54a2.23,2.23,0,0,0-2.72,0c-.6.41-.87-.12-.7-.69a8.18,8.18,0,0,1,1.45-2.55.73.73,0,0,1,1-.16A8.88,8.88,0,0,1,29.21,37.21Z"/><path class="cls-3" d="M36.77,29.83a2.61,2.61,0,0,1-2.38,3.09c-.26,0-.52,0-.64,0a5.2,5.2,0,0,1-3.06-.85,2.48,2.48,0,0,1-1-2.48,2.2,2.2,0,0,1,1.6-1.84,7.87,7.87,0,0,1,2.81-.39C35.78,27.42,36.68,28.23,36.77,29.83Z"/><path class="cls-3" d="M23.28,32.32a5.4,5.4,0,0,1-2.59.64c-2.05,0-3.17-1-3.19-2.88s1-2.69,3.22-2.67a5.67,5.67,0,0,1,2.07.31,2.21,2.21,0,0,1,1.86,2A2.49,2.49,0,0,1,23.28,32.32Z"/></svg>