<svg id="Layer_1" data-name="Layer 1" xmlns="http://www.w3.org/2000/svg" viewBox="0 0 54 54"><defs><style>.cls-1{fill:#fff8fc;}.cls-2{fill:#f15a24;opacity:0.1;}.cls-3{fill:#424242;}.cls-4{fill:#b3ccfd;}</style></defs><title>Unleaven</title><circle class="cls-1" cx="27.03" cy="27.22" r="26"/><path class="cls-2" d="M21.11,25.94c.17-.49.56-.5,1-.34l.66.24,0-.05,1.67.34c.37.08.62.28.56.7s-.4.58-.81.53l-1.2-.15L22.7,27c-.35-.09-.72-.16-1.05-.28S21,26.39,21.11,25.94Z"/><path class="cls-2" d="M25.25,35.78a1.48,1.48,0,1,1,0,3,1.48,1.48,0,1,1,0-3Z"/><path class="cls-2" d="M27.37,37.24a1.45,1.45,0,0,1,1.48-1.46,1.5,1.5,0,0,1,1.49,1.56,1.48,1.48,0,0,1-1.54,1.4A1.45,1.45,0,0,1,27.37,37.24Z"/><path class="cls-2" d="M29.11,26.83a.59.59,0,0,1,.55-.7,14.58,14.58,0,0,0,2.53-.61.55.55,0,0,1,.75.32.58.58,0,0,1-.31.83,10.11,10.11,0,0,1-2.71.7C29.53,27.38,29.17,27.3,29.11,26.83Z"/><path class="cls-3" d="M25,26.83c-.06.46-.4.58-.81.53l-1.2-.15L22.7,27c-.35-.09-.72-.16-1.05-.28s-.69-.37-.54-.82.56-.5,1-.34l.66.24,0-.05,1.67.34C24.76,26.21,25,26.41,25,26.83Z"/><path class="cls-3" d="M26.72,37.27a1.5,1.5,0,0,1-1.49,1.47,1.48,1.48,0,1,1,0-3A1.51,1.51,0,0,1,26.72,37.27Z"/><path class="cls-3" d="M30.34,37.34a1.48,1.48,0,0,1-1.54,1.4,1.48,1.48,0,0,1,.05-3A1.5,1.5,0,0,1,30.34,37.34Z"/><path class="cls-3" d="M32.63,26.67a10.11,10.11,0,0,1-2.71.7c-.39,0-.75-.07-.81-.54a.59.59,0,0,1,.55-.7,14.58,14.58,0,0,0,2.53-.61.55.55,0,0,1,.75.32A.58.58,0,0,1,32.63,26.67Z"/><path class="cls-3" d="M38.46,25.5a5,5,0,0,0,3.7-6,0,0,0,0,1,0,0,6.28,6.28,0,0,0-.84-1.94,7.59,7.59,0,0,0-2-2.08L39,15.21c-.34-.23-.71-.5-1.1-.2s-.2.73-.09,1.12a5.25,5.25,0,0,1,.3,2.57c-.17.86-.81,1.15-1.6,1.3A1.16,1.16,0,0,1,35,19.28a3.19,3.19,0,0,0-4.35-1.6,10.71,10.71,0,0,1-7.28,0c-2.17-.74-3.32-.17-4.51,1.83-.17.27-.29.48-.66.53a1.93,1.93,0,0,1-2.29-2.31,15.21,15.21,0,0,1,.44-1.86c.08-.31.14-.61-.12-.84a.73.73,0,0,0-.93,0c-.17.1-.33.21-.49.32a7.62,7.62,0,0,0-2.26,2.43,5.91,5.91,0,0,0-.67,1.65,5,5,0,0,0,3.53,6l.22.18c.52.46.11.93,0,1.4a1.09,1.09,0,0,0,0,1.22,9.81,9.81,0,0,0,2.39,1.05c.51.09.68.48.81.92a21.52,21.52,0,0,0,1.68,4.31,4.51,4.51,0,0,1,.47,3.1c-.29,1.59.18,2.38,1.69,3.13a.17.17,0,0,1,.05.12,10.71,10.71,0,0,0,2.44.58A13.46,13.46,0,0,0,30.87,41c1.55-.52,2.49-1.58,2.2-2.83a6,6,0,0,1,.8-4.4,9.51,9.51,0,0,0,1-2.43,3,3,0,0,1,2.28-2.49c1.65-.49,1.77-1,.9-2.41C37.57,25.72,37.9,25.68,38.46,25.5Zm-.88-1.62c-.33.08-.65.16-1,.22-1.41.23-1.7.88-1,2.08.58.92.51,1.2-.54,1.49a1.88,1.88,0,0,0-1.47,1.47,25.74,25.74,0,0,1-1.94,5.07,4.73,4.73,0,0,0-.56,2.72c.24,1.81-.17,2.31-2,2.65a11.48,11.48,0,0,1-5.37-.26,1.79,1.79,0,0,0-.81-.11.84.84,0,0,0,0-.17c-.63-.57-.32-1.26-.22-1.89a4.34,4.34,0,0,0-.22-2.25,61.1,61.1,0,0,1-2.19-6,1.53,1.53,0,0,0-1.25-1.16c-1.08-.27-1.18-.59-.6-1.55a1.33,1.33,0,0,0-.09-1.75,3.2,3.2,0,0,0-2.49-.29,1.5,1.5,0,0,0-.36-.35c-.4-.41-.87-.74-1.24-1.18a2.71,2.71,0,0,1-.15-3.48c.32.19.34.56.48.85a2.7,2.7,0,0,0,2.07,1.58,9.64,9.64,0,0,0,2.14.15,1.62,1.62,0,0,0,1.43-.89c.94-1.6,1.44-1.88,3.21-1.26a10.65,10.65,0,0,0,7.28-.05c1.59-.54,2.24-.23,3,1.27a1.85,1.85,0,0,0,1.76,1.09c2.29.07,3.54-.81,4.42-3.13C41.11,21.24,40.23,23.18,37.58,23.88Z"/><path class="cls-4" d="M39.94,18.72c-.88,2.32-2.13,3.2-4.42,3.13a1.85,1.85,0,0,1-1.76-1.09c-.78-1.5-1.43-1.81-3-1.27a10.65,10.65,0,0,1-7.28.05c-1.77-.62-2.27-.34-3.21,1.26a1.62,1.62,0,0,1-1.43.89,9.64,9.64,0,0,1-2.14-.15A2.7,2.7,0,0,1,14.61,20c-.14-.29-.16-.66-.48-.85a2.71,2.71,0,0,0,.15,3.48c.37.44.84.77,1.24,1.18a1.5,1.5,0,0,1,.36.35,3.2,3.2,0,0,1,2.49.29,1.33,1.33,0,0,1,.09,1.75c-.58,1-.48,1.28.6,1.55a1.53,1.53,0,0,1,1.25,1.16,61.1,61.1,0,0,0,2.19,6,4.34,4.34,0,0,1,.22,2.25c-.1.63-.41,1.32.22,1.89a.84.84,0,0,1,0,.17,1.79,1.79,0,0,1,.81.11,11.48,11.48,0,0,0,5.37.26c1.8-.34,2.21-.84,2-2.65a4.73,4.73,0,0,1,.56-2.72,25.74,25.74,0,0,0,1.94-5.07,1.88,1.88,0,0,1,1.47-1.47c1-.29,1.12-.57.54-1.49-.75-1.2-.46-1.85,1-2.08.33-.06.65-.14,1-.22C40.23,23.18,41.11,21.24,39.94,18.72Zm-17,8.49L22.7,27c-.35-.09-.72-.16-1.05-.28s-.69-.37-.54-.82.56-.5,1-.34l.66.24,0-.05,1.67.34c.37.08.62.28.56.7s-.4.58-.81.53Zm2.29,11.53a1.48,1.48,0,1,1,0-3,1.48,1.48,0,1,1,0,3Zm3.57,0a1.48,1.48,0,0,1,.05-3,1.5,1.5,0,0,1,1.49,1.56A1.48,1.48,0,0,1,28.8,38.74Zm3.83-12.07a10.11,10.11,0,0,1-2.71.7c-.39,0-.75-.07-.81-.54a.59.59,0,0,1,.55-.7,14.58,14.58,0,0,0,2.53-.61.55.55,0,0,1,.75.32A.58.58,0,0,1,32.63,26.67Z"/></svg>