<svg id="Layer_1" data-name="Layer 1" xmlns="http://www.w3.org/2000/svg" viewBox="0 0 54 54"><defs><style>.cls-1{fill:#fff8fc;}.cls-2{fill:#424242;}.cls-3{fill:#b3ccfd;}</style></defs><title>Unleaven</title><circle class="cls-1" cx="27.28" cy="26.93" r="26"/><path class="cls-2" d="M41.5,34.07a16.69,16.69,0,0,0-6.57-7.2,9,9,0,0,1-2-2.1c-.35-.42-.22-.65.33-.67,1,0,1.95-.12,2.92-.17.42,0,.8-.06,1-.47l2.1-3.56a.67.67,0,1,0-1.15-.67,6.71,6.71,0,0,0-.66,1.12c-.69,1.74-1.84,2.66-3.79,2.37-.45-.07-1,.3-1.24-.47s-.24-1.21.45-1.66,1.06-.87,1.6-1.3A1.11,1.11,0,0,0,35,18.15c-.26-1.49-.49-3-.75-4.49-.07-.43-.27-.79-.78-.73s-.62.5-.55,1c.19,1.1.37,2.22.55,3.32s-.08,1.6-1.47,2.05a3.15,3.15,0,0,0-.19-2.83,8.51,8.51,0,0,0-4.21-2.81,1.34,1.34,0,0,0-1.06.07,18.48,18.48,0,0,0-3.46,2.13,3.41,3.41,0,0,0-.64,3.51c-1.13-.56-1.67-1.21-1.28-2.46a19.88,19.88,0,0,0,.52-3c.07-.47,0-.91-.57-1s-.68.3-.75.75a29.61,29.61,0,0,1-.56,3.1c-.39,1.41-.21,2.53,1.18,3.29a9.53,9.53,0,0,1,1,.81c.64.47.15,1,.07,1.48s-.52.4-.88.4c-2.74-.08-2.74-.08-4.15-2.51-.17-.28-.34-.55-.5-.84s-.56-.73-1-.45-.37.73-.13,1.13c.63,1.06,1.27,2.12,1.88,3.19a1.22,1.22,0,0,0,1.14.66c.95,0,1.89.11,2.82.15.59,0,.88.16.4.75a8.88,8.88,0,0,1-2.2,2.21,17.46,17.46,0,0,0-2.66,2.05,14.89,14.89,0,0,0-3.79,5.25c-.2.45-.27.86.27,1.09s.74-.1.93-.49.47-1,.75-1.45a10.77,10.77,0,0,1,3-3.4,5.32,5.32,0,0,1-.43,1.12,13.53,13.53,0,0,0-1.66,7,2.66,2.66,0,0,0,2.83,2.68A8.37,8.37,0,0,0,23.91,39c.36-.27.56-.42,1,0,1.68,1.52,2.95,1.53,4.68,0,.44-.39.69-.35,1.08,0a8.11,8.11,0,0,0,2.76,1.48c4,1.37,6-.4,5.33-4.53a24.93,24.93,0,0,0-2.13-6,12.65,12.65,0,0,1,3.66,4.68c.22.48.43,1.13,1.15.77S41.71,34.53,41.5,34.07Zm-22.8,5.5a1.43,1.43,0,0,1-1.59-1.41,8.3,8.3,0,0,1,.51-3.85A28.86,28.86,0,0,1,23.7,24.5a1.87,1.87,0,0,1,1.17-.75,3.09,3.09,0,0,1,.23,1.59c0,2.64.13,5.28.13,7.93A6.4,6.4,0,0,1,18.7,39.57Zm9.83-1.41a1.8,1.8,0,0,1-2.2.3c-.63-.42-1-.85-.51-1.76,1.1-1.91.81-4.08.79-6.17,0-2.5-.15-5-.25-7.49-.07-1.36-.42-1.54-1.61-.9l-1.3.72a3.39,3.39,0,0,1,.65-2A1.19,1.19,0,0,0,24,19.27a1.9,1.9,0,0,1,1.09-3.13,1.79,1.79,0,0,0,1.08-.65c.35-.46,1-.79,1.42-.45.86.64,1.9,1,2.68,1.72A1.62,1.62,0,0,1,30.53,19a1.43,1.43,0,0,0,0,1.95,4.11,4.11,0,0,1,.63,1.93c-.65-.37-1.14-.66-1.63-.91-.85-.42-1.26-.24-1.32.69-.2,3.83-.36,7.67-.23,11.51a5.27,5.27,0,0,0,.67,2.39C29,37.19,29.2,37.66,28.53,38.16Zm8.87-1.82c.5,2.9-.57,3.8-3.36,2.93-3.24-1-4.75-3.09-4.77-6.53V29.06h.23c0-1.56,0-3.11,0-4.67,0-.84.4-.74.83-.36a13.73,13.73,0,0,1,1.5,1.55C34.38,28.8,36.68,32.16,37.4,36.34Z"/><path class="cls-3" d="M28.23,22.69c-.2,3.83-.36,7.67-.23,11.51a5.27,5.27,0,0,0,.67,2.39c.34.6.53,1.07-.14,1.57a1.8,1.8,0,0,1-2.2.3c-.63-.42-1-.85-.51-1.76,1.1-1.91.81-4.08.79-6.17,0-2.5-.15-5-.25-7.49-.07-1.36-.42-1.54-1.61-.9l-1.3.72a3.39,3.39,0,0,1,.65-2A1.19,1.19,0,0,0,24,19.27a1.9,1.9,0,0,1,1.09-3.13,1.79,1.79,0,0,0,1.08-.65c.35-.46,1-.79,1.42-.45.86.64,1.9,1,2.68,1.72A1.62,1.62,0,0,1,30.53,19a1.43,1.43,0,0,0,0,1.95,4.11,4.11,0,0,1,.63,1.93c-.65-.37-1.14-.66-1.63-.91C28.7,21.58,28.29,21.76,28.23,22.69Z"/><path class="cls-3" d="M34,39.27c-3.24-1-4.75-3.09-4.77-6.53V29.06h.23c0-1.56,0-3.11,0-4.67,0-.84.4-.74.83-.36a13.73,13.73,0,0,1,1.5,1.55c2.56,3.22,4.86,6.58,5.58,10.76C37.9,39.24,36.83,40.14,34,39.27Z"/><path class="cls-3" d="M25.23,33.27a6.4,6.4,0,0,1-6.53,6.3,1.43,1.43,0,0,1-1.59-1.41,8.3,8.3,0,0,1,.51-3.85A28.86,28.86,0,0,1,23.7,24.5a1.87,1.87,0,0,1,1.17-.75,3.09,3.09,0,0,1,.23,1.59C25.15,28,25.23,30.62,25.23,33.27Z"/></svg>