<svg id="Layer_1" data-name="Layer 1" xmlns="http://www.w3.org/2000/svg" viewBox="0 0 54 54"><defs><style>.cls-1{fill:#fff8fc;}.cls-2{fill:#424242;}.cls-3{fill:#b3ccfd;}</style></defs><title>Unleaven</title><circle class="cls-1" cx="27.06" cy="26.84" r="26"/><path class="cls-2" d="M41.62,19.58a12.94,12.94,0,0,0-5.1-2.22,2.59,2.59,0,0,1-1.43-.77,2.24,2.24,0,0,0-3.45,0c-.65.91-1.7,1.28-2.31,2.07-1.45,1.87-3.36,1.87-5.44,1.94-4.05.12-7.3,1.75-9.18,5.56a6,6,0,0,1-1.51,1.74,4.34,4.34,0,0,0-1.7,2.94c-.14,2,1.14,3,2.63,3.86.54.3.69.48.17.93s-1,.94-.62,1.64,1,.56,1.6.56H22.7c1.52,0,3,0,4.55,0,1.09,0,1.36-.48,1-1.49A5.34,5.34,0,0,0,27.13,35,3.21,3.21,0,0,1,31.8,36.4a6.86,6.86,0,0,0,.93,1,1.3,1.3,0,0,0,1,.45H38c.84,0,1.07-.48.85-1.18a3.21,3.21,0,0,0-2.37-2.2,2,2,0,0,1-.93-3A13.52,13.52,0,0,0,38,26.42a1.29,1.29,0,0,1,.71-.85,11,11,0,0,0,3.31-3.23C42.93,21.07,42.84,20.52,41.62,19.58ZM33.41,17.2a1,1,0,0,1,1,1.19c0,.67-.49,1-1.13,1a1,1,0,0,1-1-1.11A1,1,0,0,1,33.41,17.2ZM23.8,36.45c1-1,1.66-1,2.74,0ZM41,21.64c-1,1.17-1.92,2.47-3.46,3a.94.94,0,0,0-.64.87,11.21,11.21,0,0,1-2.58,5.38,1.78,1.78,0,0,0-.42,1.84,5.12,5.12,0,0,1,.23,1c.13,1.15.47,2,1.9,2a1.25,1.25,0,0,1,1.13.76H33.93a.46.46,0,0,1-.29-.09,30.06,30.06,0,0,1-3.33-4c-.18-.27,0-.56.05-.82.19-.64.41-1.27.61-1.91.11-.4.17-.82-.29-1s-.81.09-1,.56c-.35,1.16-1,2.27-.7,3.56.06.26,0,.43-.25.46-.67.07-1.34.14-2,.19-.31,0-.36-.21-.46-.46-.78-1.91-4.07-3.94-6.17-3.81-.38,0-.72.13-.75.58s.3.68.72.73a8.12,8.12,0,0,1,4,1.64c1.15.82,1.18,1.29.08,2.21a7.7,7.7,0,0,1-5.57,2.17c-1-.06-1.94,0-3,0,1.06-1.72,1-2-.74-2.9a6.71,6.71,0,0,1-1.14-.77c-1.16-1-1.37-2.16-.26-3.2a36.43,36.43,0,0,0,3.7-4.72c1.74-2.25,4.3-2.82,7-3,1.06-.08,2.12-.06,3.18,0a1.37,1.37,0,0,0,1.26-.6,8.89,8.89,0,0,1,1.82-1.75c.4-.29.63-.35,1,.14a2.37,2.37,0,0,0,4.24-.47c.23-.51.48-.61,1-.48a14.27,14.27,0,0,1,4.23,1.9C41.25,20.92,41.31,21.23,41,21.64Z"/><path class="cls-3" d="M41,21.64c-1,1.17-1.92,2.47-3.46,3a.94.94,0,0,0-.64.87,11.21,11.21,0,0,1-2.58,5.38,1.78,1.78,0,0,0-.42,1.84,5.12,5.12,0,0,1,.23,1c.13,1.15.47,2,1.9,2a1.25,1.25,0,0,1,1.13.76H33.93a.46.46,0,0,1-.29-.09,30.06,30.06,0,0,1-3.33-4c-.18-.27,0-.56.05-.82.19-.64.41-1.27.61-1.91.11-.4.17-.82-.29-1s-.81.09-1,.56c-.35,1.16-1,2.27-.7,3.56.06.26,0,.43-.25.46-.67.07-1.34.14-2,.19-.31,0-.36-.21-.46-.46-.78-1.91-4.07-3.94-6.17-3.81-.38,0-.72.13-.75.58s.3.68.72.73a8.12,8.12,0,0,1,4,1.64c1.15.82,1.18,1.29.08,2.21a7.7,7.7,0,0,1-5.57,2.17c-1-.06-1.94,0-3,0,1.06-1.72,1-2-.74-2.9a6.71,6.71,0,0,1-1.14-.77c-1.16-1-1.37-2.16-.26-3.2a36.43,36.43,0,0,0,3.7-4.72c1.74-2.25,4.3-2.82,7-3,1.06-.08,2.12-.06,3.18,0a1.37,1.37,0,0,0,1.26-.6,8.89,8.89,0,0,1,1.82-1.75c.4-.29.63-.35,1,.14a2.37,2.37,0,0,0,4.24-.47c.23-.51.48-.61,1-.48a14.27,14.27,0,0,1,4.23,1.9C41.25,20.92,41.31,21.23,41,21.64Z"/><path class="cls-3" d="M26.54,36.45H23.8C24.82,35.42,25.46,35.41,26.54,36.45Z"/><path class="cls-3" d="M34.45,18.39c0,.67-.49,1-1.13,1a1,1,0,0,1-1-1.11,1.09,1.09,0,1,1,2.17.1Z"/></svg>