<svg id="Layer_1" data-name="Layer 1" xmlns="http://www.w3.org/2000/svg" viewBox="0 0 54 54"><defs><style>.cls-1{fill:#fff8fc;}.cls-2{fill:#424242;}.cls-3{fill:#b3ccfd;}</style></defs><title>Unleaven</title><circle class="cls-1" cx="26.7" cy="26.98" r="26"/><path class="cls-2" d="M41.7,30.07c-.13-.12-.27-.23-.42-.35-1.25-.93-1.21-1.24-.06-2,.68-.45.67-1,.05-1.53-1.13-1-1.12-1.06.07-2.06.14-.12.29-.23.42-.36.31-.31.54-.64.19-1.05a.65.65,0,0,0-1.07,0c-1,1.32-2.72,1.1-4,1.9-.2.13-.68.3-.63-.21.14-1.42-.23-3,1.13-4.13.83-.7,1.2-2,2.67-1.66.41.08.7-.25.69-.69a.64.64,0,0,0-.65-.63c-1.19-.09-2.37-.21-3,1.15a8.18,8.18,0,0,1-.92,1.25c-.83,1.07-1.81,2.07-1.16,3.65.18.44-.12.7-.62.59a6.86,6.86,0,0,0-1.08-.21c-.83,0-1.09-.45-1-1.22a4.86,4.86,0,0,0-.79-3.14,32.87,32.87,0,0,1-1.82-3.54c-.48-1.2-1.38-1.15-2.36-1-.36,0-.65.22-.66.61a.58.58,0,0,0,.57.69c1.19-.1,1.42.82,1.82,1.58s.9,1.86,1.43,2.74A4.58,4.58,0,0,1,31,23c0,.82-.65.49-1.06.57s-.84-.07-.75-.61a3,3,0,0,0-1.09-2.53c-1-1.11-1.91-2.25-2.86-3.37-1.08-1.28-1.18-1.3-2.69-.67-.45.18-.84.38-.68.94s.7.53,1.1.37a1,1,0,0,1,1.32.37c1,1.27,2.09,2.49,3.13,3.73.27.31.54.63.24,1.16a15.31,15.31,0,0,0-7.27-1.41A12.65,12.65,0,0,0,13,23.76c-2.37,1.8-2.37,4.52,0,6.35a9.16,9.16,0,0,0,3.15,1.58A16.54,16.54,0,0,0,27.64,31c.26.59-.05.88-.31,1.19-.9,1.07-1.83,2.13-2.7,3.22-.52.65-1,1.31-2,.78a.58.58,0,0,0-.76.27.61.61,0,0,0,0,.73,2.17,2.17,0,0,0,2.9.16c1.27-1.48,2.51-3,3.78-4.48a2,2,0,0,0,.54-1.51c0-.59-.05-1.07.83-1s1,.26,1,1a4.3,4.3,0,0,1-.52,2.22c-.56,1-1.06,2-1.57,3-.33.63-.58,1.29-1.51,1.17a.64.64,0,0,0-.69.59.61.61,0,0,0,.43.69,2,2,0,0,0,2.5-.87c.74-1.41,1.44-2.83,2.2-4.22a3.3,3.3,0,0,0,.49-2.11c-.16-1.11.17-1.79,1.42-1.73a1.44,1.44,0,0,0,.43-.11c.68-.21,1.07,0,.81.73a2.67,2.67,0,0,0,.72,2.82A9.5,9.5,0,0,1,37,35.34a2.47,2.47,0,0,0,2.77,1.29c.5-.07,1-.09,1-.74s-.51-.63-1-.65-1.05.19-1.39-.39c-.89-1.47-2.71-2.54-2-4.7a.85.85,0,0,0-.07-.43c-.21-.62.15-.7.54-.45,1.25.8,3,.53,4,1.88a.66.66,0,0,0,1.07.05C42.34,30.76,42.05,30.39,41.7,30.07Zm-2.37-2.56c-.35,1.4-1.09.88-1.89.47a2,2,0,0,0-2,.05,9.15,9.15,0,0,1-5.69.89,3.68,3.68,0,0,0-2.28.44,13.32,13.32,0,0,1-13.11,0c-2.36-1.27-2.36-3.53,0-4.79a13.33,13.33,0,0,1,13.21,0,3.06,3.06,0,0,0,2,.42,9.51,9.51,0,0,1,6.21,1c.85.5,1.57,0,2.28-.37s.89-.41,1.07.38c.09.36.49.63.75,1C39.69,27.14,39.39,27.3,39.33,27.51Z"/><path class="cls-3" d="M39.87,27c-.18.17-.48.33-.54.54-.35,1.4-1.09.88-1.89.47a2,2,0,0,0-2,.05,9.15,9.15,0,0,1-5.69.89,3.68,3.68,0,0,0-2.28.44,13.32,13.32,0,0,1-13.11,0c-2.36-1.27-2.36-3.53,0-4.79a13.33,13.33,0,0,1,13.21,0,3.06,3.06,0,0,0,2,.42,9.51,9.51,0,0,1,6.21,1c.85.5,1.57,0,2.28-.37s.89-.41,1.07.38C39.21,26.37,39.61,26.64,39.87,27Z"/></svg>