<svg id="Layer_1" data-name="Layer 1" xmlns="http://www.w3.org/2000/svg" viewBox="0 0 54 54"><defs><style>.cls-1{fill:#fff8fc;}.cls-2{fill:#424242;}.cls-3{fill:#b3ccfd;}</style></defs><title>Unleaven</title><circle class="cls-1" cx="26.05" cy="27.56" r="26"/><path class="cls-2" d="M36.45,24.24c-.3-.44-.74-.34-1.17-.26-1.61.28-3.24.51-4.85.85-.91.19-1.12,0-1-.94.55-3.91,1-7.84,1.5-12a.72.72,0,0,0-.42-.8c-.5-.22-.82.08-1.08.44-.66.87-1.31,1.75-2,2.64L16.13,29.45c-.31.41-.87.81-.47,1.43s1,.28,1.51.21c1.55-.24,3.09-.5,4.62-.81.78-.16,1,0,.9.83-.53,3.88-1,7.76-1.48,11.64-.06.48-.15,1,.39,1.23s.86-.13,1.15-.52L36.21,25.39C36.47,25,36.76,24.69,36.45,24.24ZM23.25,40.3a.94.94,0,0,1-.22-.07c.25-2.1.49-4.2.75-6.3.16-1.35.34-2.71.52-4.07.14-1.16-.12-1.45-1.26-1.27-1.58.25-3.15.54-5.1.88l11-14.68.2.09q-.5,4.15-1,8.31c-.09.74-.18,1.48-.29,2.21-.13.94.24,1.33,1.2,1.16l5.18-.9C30.43,30.69,26.83,35.5,23.25,40.3Z"/><path class="cls-3" d="M34.17,25.66c-3.74,5-7.34,9.84-10.92,14.64a.94.94,0,0,1-.22-.07c.25-2.1.49-4.2.75-6.3.16-1.35.34-2.71.52-4.07.14-1.16-.12-1.45-1.26-1.27-1.58.25-3.15.54-5.1.88l11-14.68.2.09q-.5,4.15-1,8.31c-.09.74-.18,1.48-.29,2.21-.13.94.24,1.33,1.2,1.16Z"/><path class="cls-2" d="M34.43,30.68a2,2,0,1,0,2,2A2,2,0,0,0,34.43,30.68Zm0,3a1,1,0,1,1,1-1A1,1,0,0,1,34.43,33.67Z"/><path class="cls-3" d="M35.38,32.71a1,1,0,1,1-1-1A1,1,0,0,1,35.38,32.71Z"/><path class="cls-2" d="M19,32.32a2,2,0,1,0,2,2A2,2,0,0,0,19,32.32Zm0,3a1,1,0,1,1,.95-1A1,1,0,0,1,19,35.31Z"/><path class="cls-3" d="M20,34.34a1,1,0,1,1-.95-1A1,1,0,0,1,20,34.34Z"/><path class="cls-2" d="M33,18.84a2,2,0,1,0,2,2A2,2,0,0,0,33,18.84Zm0,3a1,1,0,0,1-1-1,1,1,0,1,1,1,1Z"/><path class="cls-3" d="M33.9,20.87a1,1,0,1,1-.95-.95A1,1,0,0,1,33.9,20.87Z"/><path class="cls-2" d="M29.16,39.19a2,2,0,1,0,2,2A2,2,0,0,0,29.16,39.19Zm0,3a1,1,0,1,1,.95-1A1,1,0,0,1,29.16,42.18Z"/><path class="cls-3" d="M30.11,41.22a1,1,0,1,1-.95-1A1,1,0,0,1,30.11,41.22Z"/><path class="cls-2" d="M20.22,16.74a2,2,0,1,0,2,2A2,2,0,0,0,20.22,16.74Zm0,3a1,1,0,1,1,1-1A1,1,0,0,1,20.22,19.73Z"/><path class="cls-3" d="M21.17,18.77a1,1,0,1,1-1-1A1,1,0,0,1,21.17,18.77Z"/></svg>